<svg viewBox="0 0 678 641" fill="none" xmlns="http://www.w3.org/2000/svg">
  <path d="M240.44 445.527C241.426 442.766 242.567 436.401 243.186 433.323C245.336 422.325 247.247 411.277 248.918 400.191C250.655 389.082 252.624 378.347 254.621 367.307C255.893 360.271 256.757 352.251 257.816 345.097L277.372 203.819C282.058 170.664 287.649 137.553 291.791 104.361C294.822 77.2478 295.863 49.8245 298.5 22.6853C299.435 13.0545 297.679 0.495353 310.984 0.39048C317.569 0.338616 324.181 0.287515 330.774 0.287896L369.464 0.335182C376.001 0.335182 382.556 0.0548839 389.092 0.0300958C395.663 0.00492629 399.72 -0.610583 403.77 5.2112C404.468 18.6734 403.111 27.257 402.664 39.865L399.85 113.551C399.667 118.086 399.122 122.655 398.977 127.2L391.289 389.28L389.439 437.652C389.203 442.739 386.9 476.996 389.71 478.872C391.994 476.786 393.737 460.06 394.343 456.125C398.756 427.347 401.951 398.452 406.653 369.698C408.85 356.244 409.54 342.336 411.729 328.853C415.485 306.071 419.695 283.32 423.78 260.601L452.812 104.515C453.754 99.4698 453.262 90.7863 453.632 85.3962C454.528 72.4664 459.47 72.1235 470.716 72.424C480.105 72.675 489.398 73.3751 498.65 73.5609C506.749 73.6478 514.849 73.6924 522.953 73.6951C533.31 73.7313 546.192 71.6022 545.677 85.9652C544.949 106.288 544.511 126.641 542.814 146.915C542.44 151.377 542.672 156.221 542.409 160.756L539.114 222.725C538.211 241.127 537.78 259.561 536.765 277.952C536.67 279.662 536.609 281.384 536.571 283.097C536.075 313.105 535.904 343.117 536.048 373.13L535.74 418.035C535.595 428.732 534.603 435.672 535.812 446.606C537.764 441.229 539.477 431.809 540.777 425.94C543.5 414.076 546.108 402.189 548.61 390.28C552.221 373.416 555.444 357.037 558.51 340.063C562.129 320.032 566.72 300.409 570.076 280.271C573.481 259.832 577.936 239.349 581.505 218.895C584.48 201.852 587.241 184.392 591.321 167.627C592.007 164.926 597.228 164.037 599.749 164.084C623.068 164.522 646.357 165.376 669.688 165.395C671.122 165.397 672.685 165.677 674.028 166.16C675.378 168.298 677.021 170.386 677.075 172.85C677.174 177.46 677.04 182.172 676.998 186.784L676.979 207.94L676.796 278.02V407.28C676.804 426.367 677.185 446.141 676.907 465.163C677.521 464.499 676.998 405.397 677.3 399.749C677.841 417.89 677.433 436.412 677.811 454.569C677.883 458.062 677.3 466.993 677.589 469.114C675.809 474.708 670.882 476.081 665.516 476.211C651.158 476.554 636.755 476.115 622.393 476.375C617.173 476.401 611.647 477.869 606.449 477.553C599.497 477.133 597.571 476.703 597.342 469.522C597.114 462.39 597.228 455.518 597.243 448.49C597.194 433.819 597.362 419.152 597.743 404.489C597.983 375.8 598.014 347.106 597.838 318.417C597.811 315.331 598.475 300.762 598.017 299.301L597.537 299.373C595.165 303.583 587.832 348.773 586.554 356.503L561.378 508.389L555.734 542.014C554.818 547.558 552.687 564.468 549.83 567.637C546.173 571.687 516.378 570.417 510.677 570.432C497.483 570.474 485.501 571.054 472.615 569.563C469.271 569.178 466.292 567.362 463.939 565.28C463.142 559.125 463.646 541.533 463.68 534.287L463.886 470.799L463.196 227.496C463.188 226.333 463.222 225.765 462.509 225.075C460.69 226.241 458.212 243.471 457.685 246.735C455.912 257.724 454.215 268.725 452.59 279.738C451.027 290.297 449.242 300.77 447.465 311.294C443.133 336.974 441.329 363.177 438.057 388.994L430.537 444.329C427.04 470.669 423.955 497.063 421.274 523.499C419.676 539.58 418.212 555.677 416.881 571.786C415.501 590.507 414.246 609.247 412.335 627.937C412.114 630.095 411.603 633.242 410.105 634.843C409.052 635.964 407.694 636.746 406.196 637.097C396.494 639.423 382.953 638.783 372.862 638.878C358.76 639.008 344.688 638.729 330.592 639.633C324.063 640.053 317.234 641.097 312.225 636.689C309.645 629.924 311.873 599.617 312.108 591.083L313.654 532.514C314.591 461.082 316.157 389.658 318.349 318.251C318.93 284.776 319.092 251.294 318.832 217.814C318.674 197.407 319.324 176.897 317.747 156.537C317.58 154.384 317.628 151.875 316.992 149.839L316.679 149.857C313.599 155.783 304.04 239.113 302.643 250.833L276.606 453.013L267.367 523.895L263.903 550.808C263.239 556.368 262.704 561.958 261.958 567.492C261.461 572.514 258.17 574.822 253.225 575.119C240.786 575.863 227.788 575.05 215.332 574.574C201.217 574.036 187.169 574.783 173.101 573.956C168.103 573.662 161.365 570.344 161.184 564.62C160.979 557.287 161.067 549.603 161.078 542.193C161.052 530.42 161.115 518.648 161.268 506.875C161.458 498.604 162.005 490.244 162.124 482.003C162.863 418.294 162.949 354.577 162.379 290.865L162.891 232.774C162.954 224.592 162.771 216.446 162.63 208.266C162.595 206.245 163.021 199.926 161.617 198.854C160.673 200.035 160.695 204.771 160.393 206.494C158.206 218.98 156.363 231.514 154.093 243.99C150.475 264.723 146.642 285.418 142.594 306.072C139.968 319.372 136.912 332.416 134.471 345.783C129.199 374.659 124.309 403.726 118 432.385C115.506 443.711 113.349 455.263 110.632 466.555C110.181 468.286 108.576 473.507 106.93 474.163C99.5377 477.114 89.6821 476.275 81.8817 476.275L53.1197 476.31L28.4697 476.367C22.1863 476.405 14.1158 476.985 7.98336 475.833C2.56365 474.815 1.36889 468.313 1.36698 463.5C1.3605 446.598 1.36393 429.643 1.36507 412.719L1.12864 318.239L0.757586 260.287L0.106245 194.202C0.0871771 186.404 -0.344889 176.515 0.682461 169.016C1.56337 162.583 20.4805 164.234 25.4773 164.224C34.267 164.17 43.0563 164.166 51.846 164.211C60.4564 164.271 78.0953 162.966 85.2219 166.11C85.7295 167.009 88.0858 170.77 88.0736 171.241C87.4795 194.437 88.8298 217.496 88.5907 240.684C88.5671 242.983 88.5431 245.4 88.8359 247.672C89.3591 251.586 88.6277 265.278 88.7524 268.933C89.1883 281.685 87.5127 374.606 90.5932 380.864C91.7777 380.498 97.0944 355.122 97.8861 351.553L107.664 306.423C115.604 268.864 123.159 231.223 130.328 193.509L139.806 140.774C142.907 123.246 145.681 106.399 150.917 89.3097C152.168 85.2284 154.117 75.3063 156.751 72.4248C161.121 67.6445 174.985 68.6368 181.116 68.6395L206.423 68.6982C215.076 68.7337 224.299 68.302 232.739 68.9178C242.258 70.6221 243.003 74.589 243.053 82.3881C243.23 109.442 241.574 136.7 241.393 163.647L240.194 362.525L239.765 422.176C239.771 427.714 239.2 440.775 240.44 445.527Z" fill="black"/>
</svg>
